<?xml version="1.0" encoding="utf-8"?>
<!-- Designed by Vexels.com - 2016 All Rights Reserved - https://vexels.com/terms-and-conditions/  -->

<svg version="1.1" id="Capa_1" xmlns="http://www.w3.org/2000/svg" xmlns:xlink="http://www.w3.org/1999/xlink" x="0px" y="0px"
	 width="1200px" height="1200px" viewBox="0 0 1200 1200" enable-background="new 0 0 1200 1200" xml:space="preserve">
<g id="VEXELS">
</g>
<g>
	<g id="BACKGROUND">
		<g>
			<circle fill="#4A3794" cx="600.001" cy="600" r="550"/>
			<g>
				<path fill="#FFFFFF" d="M900.203,443.373c-1.18,4.996-2.557,10.765-3.736,15.723c-16.572,2.93-61.75,10.768-86.98,15.072
					l-2.643,0.444L610.746,642.876l0.607,149.752h110.223l0.242,15.186l-304.729-0.281l0.162-14.949l79.338-0.24l2.846-3.006
					c0,0,12.021-12.717,14.664-15.438l2.801-2.76V644.751L310.486,406.525l-87.996-0.246l0.039-21.084l307.41-1.299
					c0,7.352,0.082,12.917,0.123,17.223H426.673l158.801,225.301l156.488-147.058l-94.207-19.747l0.078-13.73L900.203,443.373z"/>
				<path fill="#FFFFFF" d="M977.505,509.227C949.23,554.928,857.214,703.699,852.382,713.73c-4.223,8.734-11.982,8.9-14.182,6.01
					c-1.053-1.381-1.135-3.934-0.324-7.068c7.316-26.813,63.664-181.185,77.193-218.234L977.505,509.227z"/>
				<polygon fill="#FFFFFF" points="828.205,792.265 813.748,816.105 792.294,806.195 801.232,779.828 				"/>
			</g>
			<g>
				<path opacity="0.1" enable-background="new    " d="M900.203,443.376c-1.18,4.996-2.557,10.766-3.736,15.723
					c-16.572,2.926-61.75,10.768-86.977,15.073l-2.643,0.444l-196.092,168.27l0.607,149.742h110.213l0.252,15.195l-121.841-0.125
					V612.822l141.989-133.455l-94.221-19.742l0.088-13.73l250.652-2.518H900.203z"/>
				<path opacity="0.2" enable-background="new    " d="M977.308,509.558c-28.484,46.068-120.084,194.189-124.926,204.182
					c-4.223,8.725-11.982,8.891-14.176,6.01c-1.059-1.381-1.141-3.943-0.33-7.074c7.316-26.811,63.664-181.184,77.193-218.234
					l61.789,14.627L977.308,509.558z"/>
				<path fill="#FFFFFF" d="M977.511,509.232c-0.082,0.118-0.121,0.203-0.203,0.326l-0.449-0.49L977.511,509.232z"/>
				<polygon opacity="0.2" enable-background="new    " points="828.214,792.265 813.757,816.111 792.304,806.201 801.242,779.833 
									"/>
			</g>
			<path opacity="0.2" enable-background="new    " d="M977.308,509.558c-28.484,46.068-120.084,194.189-124.926,204.182
				c-4.223,8.725-11.982,8.891-14.176,6.01c-1.059-1.381-1.141-3.943-0.33-7.074c7.316-26.811,63.664-181.184,77.193-218.234
				l61.789,14.627l-65.689-65.691h-10.967c-1.18,4.996-2.557,10.766-3.736,15.723c-16.572,2.926-61.75,10.768-86.977,15.073
				l-2.643,0.444l-196.092,168.27l0.607,149.742h110.213l0.252,15.195l-121.841-0.125l-182.651-0.156l182.651,182.652
				l141.946,141.938c210.998-56.43,372.047-235.133,402.428-455.531L977.308,509.558z M813.757,816.111l-21.453-9.91l8.943-26.367
				l26.977,12.432L813.757,816.111z"/>
		</g>
	</g>
</g>
</svg>
